<svg xmlns="http://www.w3.org/2000/svg" viewBox="0 0 512 512" fill="none">
  <!-- Satellite core body -->
  <circle cx="256" cy="220" r="48" fill="#4f46e5" />
  <circle cx="256" cy="220" r="36" fill="#3b82f6" />
  <circle cx="256" cy="220" r="16" fill="#ffffff" />
  
  <!-- Left solar panel array -->
  <rect x="70" y="196" width="100" height="48" rx="8" fill="#1e293b" stroke="#3b82f6" stroke-width="6" />
  <line x1="120" y1="196" x2="120" y2="244" stroke="#3b82f6" stroke-width="4" />
  <!-- Connecting arm left -->
  <rect x="170" y="214" width="38" height="12" fill="#64748b" />
  
  <!-- Right solar panel array -->
  <rect x="342" y="196" width="100" height="48" rx="8" fill="#1e293b" stroke="#3b82f6" stroke-width="6" />
  <line x1="392" y1="196" x2="392" y2="244" stroke="#3b82f6" stroke-width="4" />
  <!-- Connecting arm right -->
  <rect x="304" y="214" width="38" height="12" fill="#64748b" />

  <!-- Antenna dish at bottom -->
  <path d="M220 286 C220 310 292 310 292 286 Z" fill="#64748b" />
  <line x1="256" y1="256" x2="256" y2="286" stroke="#64748b" stroke-width="8" />

  <!-- Signal waves radiating downwards -->
  <path d="M220 340 A 50 50 0 0 0 292 340" stroke="#3b82f6" stroke-width="6" stroke-linecap="round" />
  <path d="M190 370 A 90 90 0 0 0 322 370" stroke="#4f46e5" stroke-width="6" stroke-linecap="round" opacity="0.8" />
  <path d="M160 400 A 130 130 0 0 0 352 400" stroke="#3b82f6" stroke-width="6" stroke-linecap="round" opacity="0.5" />
</svg>
